<svg  viewBox="0 0 14 14" fill="none" xmlns="http://www.w3.org/2000/svg">
<path d="M7.0026 0.333336C3.33384 0.333336 0.335938 3.33543 0.335938 7C0.335938 10.6646 3.33803 13.6667 7.0026 13.6667C10.6672 13.6667 13.6693 10.6646 13.6693 7C13.6693 3.33543 10.6714 0.333336 7.0026 0.333336ZM5.17032 10.3333H3.78248V5.88889H5.17032V10.3333ZM4.44914 5.27673C4.0047 5.27673 3.66927 4.8868 3.66927 4.49686C3.66927 4.05241 4.0047 3.66248 4.44914 3.66248C4.89359 3.66248 5.22902 3.99791 5.22902 4.44235C5.27933 4.8868 4.89359 5.27673 4.44914 5.27673ZM10.3359 10.3333H8.9481V8.16562C8.9481 7.66667 8.9481 7 8.22692 7C7.50575 7 7.39254 7.55765 7.39254 8.16562V10.3878H6.0047V5.9434H7.33803V6.55556C7.50575 6.22013 7.95019 5.83438 8.67137 5.83438C10.0592 5.83438 10.3401 6.77778 10.3401 7.94759V10.3333H10.3359Z" fill="white"/>
</svg>
