<svg  viewBox="0 0 672 784" fill="none" xmlns="http://www.w3.org/2000/svg">
<path d="M100.299 408.246V582H0L100.299 408.246Z" fill="white"/>
<path d="M280.836 95.5759V582H180.537V269.27L280.836 95.5759Z" fill="white"/>
<path d="M335.998 0L431.283 165.031V582H330.984V8.5L335.998 0Z" fill="white"/>
<path d="M571.702 408.246V582H471.403V234.535L571.702 408.246Z" fill="white"/>
<path d="M170.507 286.645V582H150.447V321.387L170.507 286.645Z" fill="white"/>
<path d="M461.373 217.152V582H441.313V182.414L461.373 217.152Z" fill="white"/>
<path d="M641.911 529.852V582H621.852V495.121L641.911 529.852Z" fill="white"/>
<path d="M672 582H651.94V547.5L672 582Z" fill="white"/>
<path fill-rule="evenodd" clip-rule="evenodd" d="M333.297 783.028H359.07V759H365.5V783.028H391.273V759H401L436.224 783.028H481.955L427.463 746.045L481.955 677H449.224L405.234 733.09H391.273V677H365.5V733H359.07V677C357.318 677 355.193 677 351.798 677L306.057 677C298.529 677 291.497 678.289 285.006 680.915C278.568 683.52 272.943 687.178 268.175 691.897C263.396 696.626 259.685 702.258 257.032 708.743C254.356 715.286 253.043 722.392 253.043 730.014V783.028H278.816V758.965H333.297V783.028ZM302.885 703.035L302.932 703.031L302.978 703.026C304.803 702.839 305.753 702.774 306.057 702.774H333.297V733.192H278.816V730.014C278.816 725.397 279.454 721.714 280.583 718.847C281.849 715.708 283.387 713.231 285.141 711.328C286.998 709.312 288.98 707.788 291.08 706.701C293.435 705.481 295.591 704.614 297.555 704.064C299.718 703.471 301.483 703.145 302.885 703.035Z" fill="white"/>
<path d="M253.182 702.774H214.012V783.028H188.238V702.774H149V677H253.182V702.774Z" fill="white"/>
<path d="M488.5 783.028H514.273V677H488.5V783.028Z" fill="white"/>
</svg>
